<svg width="80" height="80" viewBox="0 0 80 80" fill="none" xmlns="http://www.w3.org/2000/svg">
<path d="M40 0C17.92 0 0 17.92 0 40C0 62.08 17.92 80 40 80C62.08 80 80 62.08 80 40C80 17.92 62.08 0 40 0ZM40 72C22.36 72 8 57.64 8 40C8 22.36 22.36 8 40 8C57.64 8 72 22.36 72 40C72 57.64 57.64 72 40 72ZM55.52 25.16L32 48.68L24.48 41.16C22.92 39.6 20.4 39.6 18.84 41.16C17.28 42.72 17.28 45.24 18.84 46.8L29.2 57.16C30.76 58.72 33.28 58.72 34.84 57.16L61.2 30.8C62.76 29.24 62.76 26.72 61.2 25.16C59.64 23.6 57.08 23.6 55.52 25.16V25.16Z" fill="black"/>
</svg>
