<svg width="23" height="27" viewBox="0 0 23 27" fill="none" xmlns="http://www.w3.org/2000/svg">
<path d="M5.11111 18.9H14.0556V21.6H5.11111V18.9ZM5.11111 13.5H17.8889V16.2H5.11111V13.5ZM5.11111 8.1H17.8889V10.8H5.11111V8.1ZM20.4444 2.7H15.1033C14.5667 1.134 13.1611 0 11.5 0C9.83889 0 8.43333 1.134 7.89667 2.7H2.55556C2.37667 2.7 2.21056 2.7135 2.04444 2.754C1.54611 2.862 1.09889 3.132 0.753889 3.4965C0.523889 3.7395 0.332222 4.0365 0.204445 4.3605C0.0766668 4.671 0 5.022 0 5.4V24.3C0 24.6645 0.0766668 25.029 0.204445 25.353C0.332222 25.677 0.523889 25.9605 0.753889 26.217C1.09889 26.5815 1.54611 26.8515 2.04444 26.9595C2.21056 26.9865 2.37667 27 2.55556 27H20.4444C21.85 27 23 25.785 23 24.3V5.4C23 3.915 21.85 2.7 20.4444 2.7ZM11.5 2.3625C12.0239 2.3625 12.4583 2.8215 12.4583 3.375C12.4583 3.9285 12.0239 4.3875 11.5 4.3875C10.9761 4.3875 10.5417 3.9285 10.5417 3.375C10.5417 2.8215 10.9761 2.3625 11.5 2.3625ZM20.4444 24.3H2.55556V5.4H20.4444V24.3Z" fill="black"/>
</svg>
