<svg width="80" height="80" viewBox="0 0 80 80" fill="none" xmlns="http://www.w3.org/2000/svg">
<path d="M47.56 26.8L40 34.36L32.44 26.8C30.88 25.24 28.36 25.24 26.8 26.8C25.24 28.36 25.24 30.88 26.8 32.44L34.36 40L26.8 47.56C25.24 49.12 25.24 51.64 26.8 53.2C28.36 54.76 30.88 54.76 32.44 53.2L40 45.64L47.56 53.2C49.12 54.76 51.64 54.76 53.2 53.2C54.76 51.64 54.76 49.12 53.2 47.56L45.64 40L53.2 32.44C54.76 30.88 54.76 28.36 53.2 26.8C51.64 25.28 49.08 25.28 47.56 26.8ZM40 0C17.88 0 0 17.88 0 40C0 62.12 17.88 80 40 80C62.12 80 80 62.12 80 40C80 17.88 62.12 0 40 0ZM40 72C22.36 72 8 57.64 8 40C8 22.36 22.36 8 40 8C57.64 8 72 22.36 72 40C72 57.64 57.64 72 40 72Z" fill="black"/>
</svg>
