<svg width="36" height="26" viewBox="0 0 36 26" fill="none" xmlns="http://www.w3.org/2000/svg">
<path d="M34.5 22.5588H33V3.44118C33 1.82353 31.65 0.5 30 0.5H6C4.35 0.5 3 1.82353 3 3.44118V22.5588H1.5C0.675 22.5588 0 23.2206 0 24.0294C0 24.8382 0.675 25.5 1.5 25.5H34.5C35.325 25.5 36 24.8382 36 24.0294C36 23.2206 35.325 22.5588 34.5 22.5588ZM20.25 22.5588H15.75C15.33 22.5588 15 22.2353 15 21.8235C15 21.4118 15.33 21.0882 15.75 21.0882H20.25C20.67 21.0882 21 21.4118 21 21.8235C21 22.2353 20.67 22.5588 20.25 22.5588ZM30 18.1471H6V4.91176C6 4.10294 6.675 3.44118 7.5 3.44118H28.5C29.325 3.44118 30 4.10294 30 4.91176V18.1471Z" fill="black"/>
</svg>
