<svg width="80" height="80" viewBox="0 0 80 80" fill="none" xmlns="http://www.w3.org/2000/svg">
<path d="M39.96 0C17.88 0 0 17.92 0 40C0 62.08 17.88 80 39.96 80C62.08 80 80 62.08 80 40C80 17.92 62.08 0 39.96 0ZM40 72C22.32 72 8 57.68 8 40C8 22.32 22.32 8 40 8C57.68 8 72 22.32 72 40C72 57.68 57.68 72 40 72ZM39.12 20H38.88C37.28 20 36 21.28 36 22.88V41.76C36 43.16 36.72 44.48 37.96 45.2L54.56 55.16C55.92 55.96 57.68 55.56 58.48 54.2C59.32 52.84 58.88 51.04 57.48 50.24L42 41.04V22.88C42 21.28 40.72 20 39.12 20V20Z" fill="black"/>
</svg>
