<svg width="77" height="36" viewBox="0 0 77 36" fill="none" xmlns="http://www.w3.org/2000/svg">
<g clip-path="url(#clip0_14_68)">
<path d="M8.81173 19.1358C12.1418 19.1358 14.7014 18.2847 16.4352 16.5551C18.1966 14.8255 19.0773 12.5193 19.0773 9.60909C19.0773 6.75382 18.1966 4.44764 16.4077 2.66309C14.6463 0.878546 12.1143 0 8.78422 0H0.995605V19.1358H8.81173ZM6.2247 4.94182H8.45395C10.6832 4.94182 12.1418 5.436 12.8849 6.342C13.628 7.248 13.8207 8.20891 13.8207 9.60909C13.8207 11.0367 13.628 11.9976 12.8849 12.9585C12.1969 13.9195 10.6832 14.4136 8.4815 14.4136H6.2247V4.94182ZM35.8418 19.1358V14.5235H26.7047V11.6133H35.0162V7.33036H26.7047V4.69473H35.6217V0H21.4756V19.1358H35.8418ZM47.4875 19.1358V4.72218H52.5514V0H37.0842V4.72218H42.2581V19.1358H47.4875ZM68.6312 19.1358V14.5235H59.4941V11.6133H67.8058V7.33036H59.4941V4.69473H68.4113V0H54.265V19.1358H68.6312ZM76.6441 19.1358V0H71.4151V19.1358H76.6441Z" fill="#104183"/>
<path d="M1.00244 21.6813V22.4085H76.6371V21.6813H1.00244Z" fill="url(#paint0_linear_14_68)"/>
<path d="M6.08667 28.5904C6.54888 28.5904 6.91061 28.4624 7.16784 28.2104C7.42507 27.9584 7.55369 27.6224 7.55369 27.2024C7.55369 26.7824 7.42507 26.4464 7.16382 26.1904C6.90659 25.9304 6.54486 25.8024 6.08265 25.8024H5.08186V28.5904H6.08667ZM5.58426 26.2544H6.04647C6.74984 26.2544 7.05128 26.6144 7.05128 27.2024C7.05128 27.7744 6.74582 28.1384 6.05049 28.1384H5.58426V26.2544ZM9.84224 28.5904V28.1384H8.53197V27.3704H9.73372V26.9184H8.53197V26.2544H9.8141V25.8024H8.02956V28.5904H9.84224ZM10.8556 28.5904V27.6144H11.4223C11.6634 27.6144 11.8764 27.5304 12.0573 27.3584C12.2422 27.1864 12.3346 26.9704 12.3346 26.7104C12.3346 26.4424 12.2422 26.2224 12.0573 26.0544C11.8724 25.8864 11.6594 25.8024 11.4223 25.8024H10.3532V28.5904H10.8556ZM10.8556 26.2544H11.3982C11.6232 26.2544 11.8363 26.4184 11.8363 26.7104C11.8363 26.9984 11.6232 27.1624 11.3982 27.1624H10.8556V26.2544ZM12.8097 28.5904L13.0388 28.0344H14.2848L14.5139 28.5904H15.0444L13.8748 25.8024H13.4488L12.2792 28.5904H12.8097ZM13.6618 26.4864L14.1281 27.6224H13.1956L13.6618 26.4864ZM15.9503 28.5904V27.5984H16.4406H16.4486L17.0475 28.5904H17.6142L16.935 27.4784C17.2404 27.3504 17.4454 27.0504 17.4454 26.6864C17.4454 26.4344 17.357 26.2264 17.1801 26.0584C17.0033 25.8864 16.7903 25.8024 16.5371 25.8024H15.4479V28.5904H15.9503ZM15.9503 26.2544H16.525C16.7662 26.2544 16.947 26.4384 16.947 26.6944C16.947 26.9624 16.7581 27.1504 16.4848 27.1504H15.9503V26.2544ZM18.934 28.5904V26.2544H19.6936V25.8024H17.6719V26.2544H18.4316V28.5904H18.934ZM20.0475 28.5904L20.2766 28.0344H21.5226L21.7517 28.5904H22.2822L21.1126 25.8024H20.6866L19.517 28.5904H20.0475ZM20.8996 26.4864L21.3658 27.6224H20.4333L20.8996 26.4864ZM23.1599 28.5904V26.7064L24.1205 28.1744L25.073 26.7024V28.5904H25.5473V25.8024H25.1213L24.1205 27.3664L23.1157 25.8024H22.6856V28.5904H23.1599ZM27.9837 28.5904V28.1384H26.6735V27.3704H27.8752V26.9184H26.6735V26.2544H27.9556V25.8024H26.1711V28.5904H27.9837ZM28.981 28.5904V26.6184L30.4962 28.5904H30.9062V25.8024H30.4199V27.7384L28.9368 25.8024H28.4946V28.5904H28.981ZM32.5577 28.5904V26.2544H33.3174V25.8024H31.2957V26.2544H32.0553V28.5904H32.5577ZM34.9276 28.6464C35.3415 28.6464 35.6952 28.5064 35.9806 28.2304C36.266 27.9544 36.4107 27.6104 36.4107 27.2024C36.4107 26.7944 36.266 26.4504 35.9766 26.1744C35.6912 25.8944 35.3415 25.7544 34.9276 25.7544C34.5136 25.7544 34.1639 25.8944 33.8785 26.1744C33.5932 26.4504 33.4485 26.7944 33.4485 27.2024C33.4485 27.6104 33.5932 27.9544 33.8785 28.2304C34.1639 28.5064 34.5136 28.6464 34.9276 28.6464ZM33.9429 27.2024C33.9429 26.9224 34.0353 26.6864 34.2242 26.4944C34.4131 26.3024 34.6502 26.2064 34.9276 26.2064C35.2049 26.2064 35.438 26.3024 35.6269 26.4944C35.8158 26.6864 35.9123 26.9224 35.9123 27.2024C35.9123 27.4824 35.8158 27.7184 35.6269 27.9104C35.438 28.0984 35.2049 28.1944 34.9276 28.1944C34.6502 28.1944 34.4131 28.0984 34.2242 27.9104C34.0353 27.7224 33.9429 27.4864 33.9429 27.2024ZM39.3828 28.5904C39.845 28.5904 40.2067 28.4624 40.4639 28.2104C40.7212 27.9584 40.8498 27.6224 40.8498 27.2024C40.8498 26.7824 40.7212 26.4464 40.4599 26.1904C40.2027 25.9304 39.841 25.8024 39.3788 25.8024H38.378V28.5904H39.3828ZM38.8804 26.2544H39.3426C40.0459 26.2544 40.3474 26.6144 40.3474 27.2024C40.3474 27.7744 40.0419 28.1384 39.3466 28.1384H38.8804V26.2544ZM43.1382 28.5904V28.1384H41.8279V27.3704H43.0297V26.9184H41.8279V26.2544H43.1101V25.8024H41.3255V28.5904H43.1382ZM46.0284 28.5904V26.2544H46.788V25.8024H44.7664V26.2544H45.526V28.5904H46.0284ZM48.9906 28.5904V28.1384H47.6803V27.3704H48.882V26.9184H47.6803V26.2544H48.9624V25.8024H47.1779V28.5904H48.9906ZM49.9877 28.5904V26.6184L51.5029 28.5904H51.9129V25.8024H51.4266V27.7384L49.9435 25.8024H49.5014V28.5904H49.9877ZM53.8699 25.7544C53.4559 25.7544 53.1022 25.8904 52.8129 26.1664C52.5275 26.4424 52.3828 26.7864 52.3828 27.1984C52.3828 27.6104 52.5275 27.9544 52.8129 28.2304C53.1022 28.5024 53.4559 28.6384 53.8699 28.6384C54.308 28.6384 54.7099 28.4504 54.9832 28.1304L54.6456 27.8384C54.4487 28.0704 54.1874 28.1864 53.8699 28.1864C53.5886 28.1864 53.3514 28.0944 53.1625 27.9064C52.9736 27.7184 52.8812 27.4824 52.8812 27.1984C52.8812 26.9144 52.9736 26.6784 53.1625 26.4904C53.3514 26.3024 53.5886 26.2064 53.8699 26.2064C54.1794 26.2064 54.4366 26.3184 54.6376 26.5464L54.9792 26.2544C54.6858 25.9224 54.316 25.7544 53.8699 25.7544ZM56.7075 28.6464C57.1215 28.6464 57.4752 28.5064 57.7605 28.2304C58.0459 27.9544 58.1906 27.6104 58.1906 27.2024C58.1906 26.7944 58.0459 26.4504 57.7565 26.1744C57.4711 25.8944 57.1215 25.7544 56.7075 25.7544C56.2935 25.7544 55.9438 25.8944 55.6585 26.1744C55.3731 26.4504 55.2284 26.7944 55.2284 27.2024C55.2284 27.6104 55.3731 27.9544 55.6585 28.2304C55.9438 28.5064 56.2935 28.6464 56.7075 28.6464ZM55.7228 27.2024C55.7228 26.9224 55.8152 26.6864 56.0041 26.4944C56.193 26.3024 56.4302 26.2064 56.7075 26.2064C56.9848 26.2064 57.2179 26.3024 57.4068 26.4944C57.5957 26.6864 57.6922 26.9224 57.6922 27.2024C57.6922 27.4824 57.5957 27.7184 57.4068 27.9104C57.2179 28.0984 56.9848 28.1944 56.7075 28.1944C56.4302 28.1944 56.193 28.0984 56.0041 27.9104C55.8152 27.7224 55.7228 27.4864 55.7228 27.2024ZM60.2744 28.5904V28.1384H59.161V25.8024H58.6586V28.5904H60.2744ZM61.912 28.6464C62.326 28.6464 62.6797 28.5064 62.9651 28.2304C63.2504 27.9544 63.3951 27.6104 63.3951 27.2024C63.3951 26.7944 63.2504 26.4504 62.961 26.1744C62.6757 25.8944 62.326 25.7544 61.912 25.7544C61.498 25.7544 61.1484 25.8944 60.863 26.1744C60.5776 26.4504 60.4329 26.7944 60.4329 27.2024C60.4329 27.6104 60.5776 27.9544 60.863 28.2304C61.1484 28.5064 61.498 28.6464 61.912 28.6464ZM60.9273 27.2024C60.9273 26.9224 61.0198 26.6864 61.2087 26.4944C61.3976 26.3024 61.6347 26.2064 61.912 26.2064C62.1894 26.2064 62.4225 26.3024 62.6114 26.4944C62.8003 26.6864 62.8967 26.9224 62.8967 27.2024C62.8967 27.4824 62.8003 27.7184 62.6114 27.9104C62.4225 28.0984 62.1894 28.1944 61.912 28.1944C61.6347 28.1944 61.3976 28.0984 61.2087 27.9104C61.0198 27.7224 60.9273 27.4864 60.9273 27.2024ZM65.2016 25.7544C64.7876 25.7544 64.4339 25.8904 64.1445 26.1664C63.8592 26.4424 63.7145 26.7864 63.7145 27.1984C63.7145 27.6104 63.8592 27.9544 64.1445 28.2304C64.4339 28.5024 64.7876 28.6384 65.2016 28.6384C65.6638 28.6384 66.0778 28.4384 66.3471 28.1144V26.9904H65.0931V27.4344H65.8728V27.9464C65.6919 28.1064 65.4669 28.1864 65.2016 28.1864C64.9202 28.1864 64.6831 28.0944 64.4942 27.9064C64.3053 27.7184 64.2129 27.4824 64.2129 27.1984C64.2129 26.9144 64.3053 26.6784 64.4942 26.4904C64.6831 26.3024 64.9202 26.2064 65.2016 26.2064C65.4869 26.2064 65.7201 26.2984 65.909 26.4784L66.2426 26.1744C65.9612 25.8944 65.6156 25.7544 65.2016 25.7544ZM67.3804 28.5904V25.8024H66.878V28.5904H67.3804ZM68.3333 28.5904L68.5624 28.0344H69.8083L70.0374 28.5904H70.568L69.3984 25.8024H68.9724L67.8028 28.5904H68.3333ZM69.1854 26.4864L69.6516 27.6224H68.7191L69.1854 26.4864ZM70.6677 28.0024C70.8446 28.3984 71.2264 28.6384 71.7449 28.6384C72.3839 28.6384 72.7256 28.3064 72.7256 27.8144C72.7256 27.6064 72.6653 27.4384 72.5487 27.3144C72.4322 27.1904 72.2433 27.0744 71.978 26.9664L71.8132 26.9024L71.6685 26.8464C71.6163 26.8184 71.5037 26.7704 71.4595 26.7384C71.3912 26.6704 71.343 26.6144 71.343 26.4984C71.343 26.3264 71.5037 26.2024 71.7248 26.2024C71.9499 26.2024 72.1147 26.2864 72.2232 26.4504L72.5809 26.2064C72.388 25.9064 72.0986 25.7544 71.7168 25.7544C71.4716 25.7544 71.2666 25.8224 71.0978 25.9624C70.933 26.1024 70.8486 26.2824 70.8486 26.5064C70.8486 26.7424 70.925 26.9224 71.0857 27.0544C71.2465 27.1824 71.3952 27.2544 71.6525 27.3504C71.8615 27.4264 71.9459 27.4624 72.0624 27.5424C72.179 27.6184 72.2232 27.7024 72.2232 27.8264C72.2232 28.0064 72.0986 28.1904 71.7489 28.1904C71.4234 28.1904 71.1902 28.0504 71.0455 27.7664L70.6677 28.0024ZM5.70722 34.0449V33.5929H4.39694V32.8249H5.5987V32.3729H4.39694V31.7089H5.67908V31.2569H3.89453V34.0449H5.70722ZM7.22294 34.0449C7.68515 34.0449 8.04688 33.9169 8.30411 33.6649C8.56134 33.4129 8.68996 33.0769 8.68996 32.6569C8.68996 32.2369 8.56134 31.9009 8.30009 31.6449C8.04286 31.3849 7.68113 31.2569 7.21892 31.2569H6.21813V34.0449H7.22294ZM6.72054 31.7089H7.18275C7.88611 31.7089 8.18756 32.0689 8.18756 32.6569C8.18756 33.2289 7.88209 33.5929 7.18677 33.5929H6.72054V31.7089ZM9.14172 32.9769C9.14172 33.3329 9.24622 33.6089 9.45924 33.8009C9.67226 33.9929 9.94557 34.0889 10.2792 34.0889C10.6128 34.0889 10.882 33.9929 11.0951 33.8009C11.3081 33.6089 11.4126 33.3329 11.4126 32.9769V31.2569H10.9102V32.9249C10.9102 33.4049 10.669 33.6369 10.2792 33.6369C9.88126 33.6369 9.64412 33.4049 9.64412 32.9249V31.2569H9.14172V32.9769ZM13.3499 31.2089C12.9359 31.2089 12.5822 31.3449 12.2928 31.6209C12.0075 31.8969 11.8628 32.2409 11.8628 32.6529C11.8628 33.0649 12.0075 33.4089 12.2928 33.6849C12.5822 33.9569 12.9359 34.0929 13.3499 34.0929C13.788 34.0929 14.1899 33.9049 14.4632 33.5849L14.1256 33.2929C13.9287 33.5249 13.6674 33.6409 13.3499 33.6409C13.0685 33.6409 12.8314 33.5489 12.6425 33.3609C12.4536 33.1729 12.3612 32.9369 12.3612 32.6529C12.3612 32.3689 12.4536 32.1329 12.6425 31.9449C12.8314 31.7569 13.0685 31.6609 13.3499 31.6609C13.6594 31.6609 13.9166 31.7729 14.1176 32.0009L14.4592 31.7089C14.1658 31.3769 13.796 31.2089 13.3499 31.2089ZM15.1864 34.0449L15.4154 33.4889H16.6614L16.8905 34.0449H17.421L16.2514 31.2569H15.8254L14.6558 34.0449H15.1864ZM16.0384 31.9409L16.5047 33.0769H15.5722L16.0384 31.9409ZM18.9941 31.2089C18.5801 31.2089 18.2264 31.3449 17.937 31.6209C17.6517 31.8969 17.507 32.2409 17.507 32.6529C17.507 33.0649 17.6517 33.4089 17.937 33.6849C18.2264 33.9569 18.5801 34.0929 18.9941 34.0929C19.4322 34.0929 19.8341 33.9049 20.1074 33.5849L19.7698 33.2929C19.5729 33.5249 19.3116 33.6409 18.9941 33.6409C18.7128 33.6409 18.4756 33.5489 18.2867 33.3609C18.0978 33.1729 18.0054 32.9369 18.0054 32.6529C18.0054 32.3689 18.0978 32.1329 18.2867 31.9449C18.4756 31.7569 18.7128 31.6609 18.9941 31.6609C19.3036 31.6609 19.5608 31.7729 19.7618 32.0009L20.1034 31.7089C19.81 31.3769 19.4402 31.2089 18.9941 31.2089ZM21.0355 34.0449V31.2569H20.5331V34.0449H21.0355ZM23.0053 34.1009C23.4193 34.1009 23.773 33.9609 24.0583 33.6849C24.3437 33.4089 24.4884 33.0649 24.4884 32.6569C24.4884 32.2489 24.3437 31.9049 24.0543 31.6289C23.7689 31.3489 23.4193 31.2089 23.0053 31.2089C22.5913 31.2089 22.2416 31.3489 21.9563 31.6289C21.6709 31.9049 21.5262 32.2489 21.5262 32.6569C21.5262 33.0649 21.6709 33.4089 21.9563 33.6849C22.2416 33.9609 22.5913 34.1009 23.0053 34.1009ZM22.0206 32.6569C22.0206 32.3769 22.113 32.1409 22.3019 31.9489C22.4908 31.7569 22.728 31.6609 23.0053 31.6609C23.2826 31.6609 23.5157 31.7569 23.7046 31.9489C23.8935 32.1409 23.99 32.3769 23.99 32.6569C23.99 32.9369 23.8935 33.1729 23.7046 33.3649C23.5157 33.5529 23.2826 33.6489 23.0053 33.6489C22.728 33.6489 22.4908 33.5529 22.3019 33.3649C22.113 33.1769 22.0206 32.9409 22.0206 32.6569ZM25.4426 34.0449V32.0729L26.9578 34.0449H27.3678V31.2569H26.8814V33.1929L25.3983 31.2569H24.9562V34.0449H25.4426ZM28.2999 34.0449L28.529 33.4889H29.7749L30.004 34.0449H30.5345L29.365 31.2569H28.9389L27.7693 34.0449H28.2999ZM29.1519 31.9409L29.6182 33.0769H28.6857L29.1519 31.9409ZM31.4565 34.0449V31.2569H30.954V34.0449H31.4565ZM31.8708 33.4569C32.0476 33.8529 32.4295 34.0929 32.948 34.0929C33.587 34.0929 33.9286 33.7609 33.9286 33.2689C33.9286 33.0609 33.8684 32.8929 33.7518 32.7689C33.6352 32.6449 33.4463 32.5289 33.1811 32.4209L33.0163 32.3569L32.8716 32.3009C32.8193 32.2729 32.7068 32.2249 32.6626 32.1929C32.5943 32.1249 32.546 32.0689 32.546 31.9529C32.546 31.7809 32.7068 31.6569 32.9279 31.6569C33.1529 31.6569 33.3177 31.7409 33.4262 31.9049L33.784 31.6609C33.591 31.3609 33.3016 31.2089 32.9198 31.2089C32.6746 31.2089 32.4697 31.2769 32.3009 31.4169C32.1361 31.5569 32.0517 31.7369 32.0517 31.9609C32.0517 32.1969 32.128 32.3769 32.2888 32.5089C32.4496 32.6369 32.5983 32.7089 32.8555 32.8049C33.0645 32.8809 33.1489 32.9169 33.2655 32.9969C33.382 33.0729 33.4262 33.1569 33.4262 33.2809C33.4262 33.4609 33.3016 33.6449 32.952 33.6449C32.6264 33.6449 32.3933 33.5049 32.2486 33.2209L31.8708 33.4569ZM37.755 34.0449V33.5929H36.4448V32.8249H37.6465V32.3729H36.4448V31.7089H37.7269V31.2569H35.9424V34.0449H37.755ZM40.9075 34.0449C41.3697 34.0449 41.7315 33.9169 41.9887 33.6649C42.2459 33.4129 42.3745 33.0769 42.3745 32.6569C42.3745 32.2369 42.2459 31.9009 41.9847 31.6449C41.7275 31.3849 41.3657 31.2569 40.9035 31.2569H39.9027V34.0449H40.9075ZM40.4051 31.7089H40.8673C41.5707 31.7089 41.8721 32.0689 41.8721 32.6569C41.8721 33.2289 41.5667 33.5929 40.8714 33.5929H40.4051V31.7089ZM42.9953 34.0449L43.2244 33.4889H44.4704L44.6995 34.0449H45.23L44.0604 31.2569H43.6344L42.4648 34.0449H42.9953ZM43.8474 31.9409L44.3136 33.0769H43.3812L43.8474 31.9409ZM47.5294 34.0449V31.2569H47.027V34.0449H47.5294ZM48.6551 34.0449V32.0729L50.1704 34.0449H50.5804V31.2569H50.094V33.1929L48.6109 31.2569H48.1688V34.0449H48.6551ZM51.7014 34.0449V32.8609H52.7906V32.4089H51.7014V31.7089H52.8951V31.2569H51.1989V34.0449H51.7014ZM54.6646 34.1009C55.0786 34.1009 55.4323 33.9609 55.7177 33.6849C56.003 33.4089 56.1477 33.0649 56.1477 32.6569C56.1477 32.2489 56.003 31.9049 55.7136 31.6289C55.4283 31.3489 55.0786 31.2089 54.6646 31.2089C54.2506 31.2089 53.901 31.3489 53.6156 31.6289C53.3302 31.9049 53.1855 32.2489 53.1855 32.6569C53.1855 33.0649 53.3302 33.4089 53.6156 33.6849C53.901 33.9609 54.2506 34.1009 54.6646 34.1009ZM53.6799 32.6569C53.6799 32.3769 53.7724 32.1409 53.9613 31.9489C54.1502 31.7569 54.3873 31.6609 54.6646 31.6609C54.9419 31.6609 55.1751 31.7569 55.364 31.9489C55.5529 32.1409 55.6493 32.3769 55.6493 32.6569C55.6493 32.9369 55.5529 33.1729 55.364 33.3649C55.1751 33.5529 54.9419 33.6489 54.6646 33.6489C54.3873 33.6489 54.1502 33.5529 53.9613 33.3649C53.7724 33.1769 53.6799 32.9409 53.6799 32.6569ZM57.1178 34.0449V33.0529H57.6082H57.6162L58.2151 34.0449H58.7818L58.1025 32.9329C58.408 32.8049 58.613 32.5049 58.613 32.1409C58.613 31.8889 58.5245 31.6809 58.3477 31.5129C58.1709 31.3409 57.9578 31.2569 57.7046 31.2569H56.6154V34.0449H57.1178ZM57.1178 31.7089H57.6926C57.9337 31.7089 58.1146 31.8929 58.1146 32.1489C58.1146 32.4169 57.9257 32.6049 57.6524 32.6049H57.1178V31.7089ZM59.6448 34.0449V32.1609L60.6054 33.6289L61.558 32.1569V34.0449H62.0322V31.2569H61.6062L60.6054 32.8209L59.6006 31.2569H59.1705V34.0449H59.6448ZM62.9698 34.0449L63.1989 33.4889H64.4449L64.674 34.0449H65.2045L64.0349 31.2569H63.6089L62.4393 34.0449H62.9698ZM63.8219 31.9409L64.2881 33.0769H63.3557L63.8219 31.9409ZM65.2904 32.6529C65.2904 33.0169 65.4029 33.3289 65.628 33.5889C65.8571 33.8489 66.1425 34.0089 66.4921 34.0689L66.3756 34.3489C66.5524 34.3489 66.6328 34.3849 66.6328 34.5009C66.6328 34.5809 66.5685 34.6329 66.476 34.6329C66.4077 34.6329 66.3434 34.6129 66.2751 34.5729L66.1706 34.7849C66.263 34.8529 66.3796 34.8849 66.5162 34.8849C66.8016 34.8849 66.9744 34.7609 66.9744 34.5209C66.9744 34.3449 66.8579 34.2289 66.7092 34.2289L66.7694 34.0929H66.7775C67.2156 34.0929 67.6175 33.9049 67.8908 33.5849L67.5532 33.2929C67.3563 33.5249 67.095 33.6409 66.7775 33.6409C66.4961 33.6409 66.259 33.5489 66.0701 33.3609C65.8812 33.1729 65.7888 32.9369 65.7888 32.6529C65.7888 32.3689 65.8812 32.1329 66.0701 31.9449C66.259 31.7569 66.4961 31.6609 66.7775 31.6609C67.087 31.6609 67.3442 31.7729 67.5452 32.0009L67.8868 31.7089C67.5934 31.3769 67.2236 31.2089 66.7775 31.2089C66.3635 31.2089 66.0098 31.3449 65.7204 31.6209C65.4351 31.8969 65.2904 32.2409 65.2904 32.6529ZM69.0118 31.0329C69.0319 30.9409 69.0882 30.8929 69.1806 30.8929C69.2329 30.8929 69.3173 30.9209 69.4298 30.9769C69.5424 31.0289 69.6428 31.0569 69.7313 31.0569C70.0005 31.0569 70.1573 30.8969 70.1975 30.5729L69.9202 30.5369C69.892 30.6449 69.8317 30.7009 69.7393 30.7009C69.687 30.7009 69.6026 30.6729 69.4901 30.6209C69.3776 30.5689 69.2771 30.5409 69.1927 30.5409C68.9395 30.5409 68.7666 30.7289 68.7305 31.0009L69.0118 31.0329ZM68.6139 34.0449L68.843 33.4889H70.089L70.3181 34.0449H70.8486L69.679 31.2569H69.253L68.0834 34.0449H68.6139ZM69.466 31.9409L69.9322 33.0769H68.9998L69.466 31.9409ZM72.4135 34.1009C72.8275 34.1009 73.1812 33.9609 73.4666 33.6849C73.752 33.4089 73.8966 33.0649 73.8966 32.6569C73.8966 32.2489 73.752 31.9049 73.4626 31.6289C73.1772 31.3489 72.8275 31.2089 72.4135 31.2089C71.9996 31.2089 71.6499 31.3489 71.3645 31.6289C71.0792 31.9049 70.9345 32.2489 70.9345 32.6569C70.9345 33.0649 71.0792 33.4089 71.3645 33.6849C71.6499 33.9609 71.9996 34.1009 72.4135 34.1009ZM71.4288 32.6569C71.4288 32.3769 71.5213 32.1409 71.7102 31.9489C71.8991 31.7569 72.1362 31.6609 72.4135 31.6609C72.6909 31.6609 72.924 31.7569 73.1129 31.9489C73.3018 32.1409 73.3983 32.3769 73.3983 32.6569C73.3983 32.9369 73.3018 33.1729 73.1129 33.3649C72.924 33.5529 72.6909 33.6489 72.4135 33.6489C72.1362 33.6489 71.8991 33.5529 71.7102 33.3649C71.5213 33.1769 71.4288 32.9409 71.4288 32.6569Z" fill="#104183"/>
</g>
<defs>
<linearGradient id="paint0_linear_14_68" x1="1.00244" y1="22.0449" x2="76.6371" y2="22.0449" gradientUnits="userSpaceOnUse">
<stop stop-color="#FFFF00"/>
<stop offset="0.509615" stop-color="#54AD33"/>
<stop offset="1" stop-color="#FFFF00"/>
</linearGradient>
<clipPath id="clip0_14_68">
<rect width="76" height="36" fill="white" transform="translate(0.995605)"/>
</clipPath>
</defs>
</svg>
