<svg width="87" height="49" viewBox="0 0 87 49" fill="none" xmlns="http://www.w3.org/2000/svg">
<path d="M5.74792 10V6.584H7.72192C8.56192 6.584 9.30392 6.29 9.93392 5.688C10.5779 5.086 10.8999 4.33 10.8999 3.42C10.8999 2.482 10.5779 1.712 9.93392 1.124C9.28992 0.535999 8.54792 0.242 7.72192 0.242H3.99792V10H5.74792ZM5.74792 1.824H7.63792C8.42192 1.824 9.16392 2.398 9.16392 3.42C9.16392 4.428 8.42192 5.002 7.63792 5.002H5.74792V1.824ZM14.2245 10V6.528H15.9325H15.9605L18.0465 10H20.0205L17.6545 6.108C18.7185 5.66 19.4325 4.61 19.4325 3.336C19.4325 2.454 19.1245 1.726 18.5085 1.138C17.8925 0.535999 17.1505 0.242 16.2685 0.242H12.4745V10H14.2245ZM14.2245 1.824H16.2265C17.0665 1.824 17.6965 2.468 17.6965 3.364C17.6965 4.302 17.0385 4.96 16.0865 4.96H14.2245V1.824ZM25.8995 10.196C27.3415 10.196 28.5735 9.706 29.5675 8.74C30.5615 7.774 31.0655 6.57 31.0655 5.142C31.0655 3.714 30.5615 2.51 29.5535 1.544C28.5595 0.564 27.3415 0.0739993 25.8995 0.0739993C24.4575 0.0739993 23.2395 0.564 22.2455 1.544C21.2515 2.51 20.7475 3.714 20.7475 5.142C20.7475 6.57 21.2515 7.774 22.2455 8.74C23.2395 9.706 24.4575 10.196 25.8995 10.196ZM22.4695 5.142C22.4695 4.162 22.7915 3.336 23.4495 2.664C24.1075 1.992 24.9335 1.656 25.8995 1.656C26.8655 1.656 27.6775 1.992 28.3355 2.664C28.9935 3.336 29.3295 4.162 29.3295 5.142C29.3295 6.122 28.9935 6.948 28.3355 7.62C27.6775 8.278 26.8655 8.614 25.8995 8.614C24.9335 8.614 24.1075 8.278 23.4495 7.62C22.7915 6.962 22.4695 6.136 22.4695 5.142ZM37.3572 0.0739993C35.9152 0.0739993 34.6832 0.55 33.6752 1.516C32.6812 2.482 32.1772 3.686 32.1772 5.128C32.1772 6.57 32.6812 7.774 33.6752 8.74C34.6832 9.692 35.9152 10.168 37.3572 10.168C38.9672 10.168 40.4092 9.468 41.3472 8.334V4.4H36.9792V5.954H39.6952V7.746C39.0652 8.306 38.2812 8.586 37.3572 8.586C36.3772 8.586 35.5512 8.264 34.8932 7.606C34.2352 6.948 33.9132 6.122 33.9132 5.128C33.9132 4.134 34.2352 3.308 34.8932 2.65C35.5512 1.992 36.3772 1.656 37.3572 1.656C38.3512 1.656 39.1632 1.978 39.8212 2.608L40.9832 1.544C40.0032 0.564 38.7992 0.0739993 37.3572 0.0739993ZM44.8905 10V6.528H46.5985H46.6265L48.7125 10H50.6865L48.3205 6.108C49.3845 5.66 50.0985 4.61 50.0985 3.336C50.0985 2.454 49.7905 1.726 49.1745 1.138C48.5585 0.535999 47.8165 0.242 46.9345 0.242H43.1405V10H44.8905ZM44.8905 1.824H46.8925C47.7325 1.824 48.3625 2.468 48.3625 3.364C48.3625 4.302 47.7045 4.96 46.7525 4.96H44.8905V1.824ZM52.7911 10L53.5891 8.054H57.9291L58.7271 10H60.5751L56.5011 0.242H55.0171L50.9431 10H52.7911ZM55.7591 2.636L57.3831 6.612H54.1351L55.7591 2.636ZM63.6323 10V3.406L66.9783 8.544L70.2963 3.392V10H71.9483V0.242H70.4643L66.9783 5.716L63.4783 0.242H61.9803V10H63.6323ZM75.213 10L76.011 8.054H80.351L81.149 10H82.997L78.923 0.242H77.439L73.365 10H75.213ZM78.181 2.636L79.805 6.612H76.557L78.181 2.636ZM11.0024 29V27.418H6.43835V24.73H10.6244V23.148H6.43835V20.824H10.9044V19.242H4.68835V29H11.0024ZM16.2821 29C17.8921 29 19.1521 28.552 20.0481 27.67C20.9441 26.788 21.3921 25.612 21.3921 24.142C21.3921 22.672 20.9441 21.496 20.0341 20.6C19.1381 19.69 17.8781 19.242 16.2681 19.242H12.7821V29H16.2821ZM14.5321 20.824H16.1421C18.5921 20.824 19.6421 22.084 19.6421 24.142C19.6421 26.144 18.5781 27.418 16.1561 27.418H14.5321V20.824ZM22.9657 25.262C22.9657 26.508 23.3297 27.474 24.0717 28.146C24.8137 28.818 25.7657 29.154 26.9277 29.154C28.0897 29.154 29.0277 28.818 29.7697 28.146C30.5117 27.474 30.8757 26.508 30.8757 25.262V19.242H29.1257V25.08C29.1257 26.76 28.2857 27.572 26.9277 27.572C25.5417 27.572 24.7157 26.76 24.7157 25.08V19.242H22.9657V25.262ZM37.6238 19.074C36.1818 19.074 34.9498 19.55 33.9418 20.516C32.9478 21.482 32.4438 22.686 32.4438 24.128C32.4438 25.57 32.9478 26.774 33.9418 27.74C34.9498 28.692 36.1818 29.168 37.6238 29.168C39.1498 29.168 40.5498 28.51 41.5018 27.39L40.3258 26.368C39.6398 27.18 38.7298 27.586 37.6238 27.586C36.6438 27.586 35.8178 27.264 35.1598 26.606C34.5018 25.948 34.1798 25.122 34.1798 24.128C34.1798 23.134 34.5018 22.308 35.1598 21.65C35.8178 20.992 36.6438 20.656 37.6238 20.656C38.7018 20.656 39.5978 21.048 40.2978 21.846L41.4878 20.824C40.4658 19.662 39.1778 19.074 37.6238 19.074ZM44.0206 29L44.8186 27.054H49.1586L49.9566 29H51.8046L47.7306 19.242H46.2466L42.1726 29H44.0206ZM46.9886 21.636L48.6126 25.612H45.3646L46.9886 21.636ZM52.1039 24.128C52.1039 25.402 52.4959 26.494 53.2799 27.404C54.0779 28.314 55.0719 28.874 56.2899 29.084L55.8839 30.064C56.4999 30.064 56.7799 30.19 56.7799 30.596C56.7799 30.876 56.5559 31.058 56.2339 31.058C55.9959 31.058 55.7719 30.988 55.5339 30.848L55.1699 31.59C55.4919 31.828 55.8979 31.94 56.3739 31.94C57.3679 31.94 57.9699 31.506 57.9699 30.666C57.9699 30.05 57.5639 29.644 57.0459 29.644L57.2559 29.168H57.2839C58.8099 29.168 60.2099 28.51 61.1619 27.39L59.9859 26.368C59.2999 27.18 58.3899 27.586 57.2839 27.586C56.3039 27.586 55.4779 27.264 54.8199 26.606C54.1619 25.948 53.8399 25.122 53.8399 24.128C53.8399 23.134 54.1619 22.308 54.8199 21.65C55.4779 20.992 56.3039 20.656 57.2839 20.656C58.3619 20.656 59.2579 21.048 59.9579 21.846L61.1479 20.824C60.1259 19.662 58.8379 19.074 57.2839 19.074C55.8419 19.074 54.6099 19.55 53.6019 20.516C52.6079 21.482 52.1039 22.686 52.1039 24.128ZM65.0667 18.458C65.1367 18.136 65.3327 17.968 65.6547 17.968C65.8367 17.968 66.1307 18.066 66.5227 18.262C66.9147 18.444 67.2647 18.542 67.5727 18.542C68.5107 18.542 69.0567 17.982 69.1967 16.848L68.2307 16.722C68.1327 17.1 67.9227 17.296 67.6007 17.296C67.4187 17.296 67.1247 17.198 66.7327 17.016C66.3407 16.834 65.9907 16.736 65.6967 16.736C64.8147 16.736 64.2127 17.394 64.0867 18.346L65.0667 18.458ZM63.6807 29L64.4787 27.054H68.8187L69.6167 29H71.4647L67.3907 19.242H65.9067L61.8327 29H63.6807ZM66.6487 21.636L68.2727 25.612H65.0247L66.6487 21.636ZM76.9161 29.196C78.3581 29.196 79.5901 28.706 80.5841 27.74C81.5781 26.774 82.0821 25.57 82.0821 24.142C82.0821 22.714 81.5781 21.51 80.5701 20.544C79.5761 19.564 78.3581 19.074 76.9161 19.074C75.4741 19.074 74.2561 19.564 73.2621 20.544C72.2681 21.51 71.7641 22.714 71.7641 24.142C71.7641 25.57 72.2681 26.774 73.2621 27.74C74.2561 28.706 75.4741 29.196 76.9161 29.196ZM73.4861 24.142C73.4861 23.162 73.8081 22.336 74.4661 21.664C75.1241 20.992 75.9501 20.656 76.9161 20.656C77.8821 20.656 78.6941 20.992 79.3521 21.664C80.0101 22.336 80.3461 23.162 80.3461 24.142C80.3461 25.122 80.0101 25.948 79.3521 26.62C78.6941 27.278 77.8821 27.614 76.9161 27.614C75.9501 27.614 75.1241 27.278 74.4661 26.62C73.8081 25.962 73.4861 25.136 73.4861 24.142ZM5.55641 38.074C4.11441 38.074 2.88241 38.55 1.87441 39.516C0.880406 40.482 0.376406 41.686 0.376406 43.128C0.376406 44.57 0.880406 45.774 1.87441 46.74C2.88241 47.692 4.11441 48.168 5.55641 48.168C7.08241 48.168 8.48241 47.51 9.43441 46.39L8.25841 45.368C7.57241 46.18 6.66241 46.586 5.55641 46.586C4.57641 46.586 3.75041 46.264 3.09241 45.606C2.43441 44.948 2.11241 44.122 2.11241 43.128C2.11241 42.134 2.43441 41.308 3.09241 40.65C3.75041 39.992 4.57641 39.656 5.55641 39.656C6.63441 39.656 7.53041 40.048 8.23041 40.846L9.42041 39.824C8.39841 38.662 7.11041 38.074 5.55641 38.074ZM15.4405 48.196C16.8825 48.196 18.1145 47.706 19.1085 46.74C20.1025 45.774 20.6065 44.57 20.6065 43.142C20.6065 41.714 20.1025 40.51 19.0945 39.544C18.1005 38.564 16.8825 38.074 15.4405 38.074C13.9985 38.074 12.7805 38.564 11.7865 39.544C10.7925 40.51 10.2885 41.714 10.2885 43.142C10.2885 44.57 10.7925 45.774 11.7865 46.74C12.7805 47.706 13.9985 48.196 15.4405 48.196ZM12.0105 43.142C12.0105 42.162 12.3325 41.336 12.9905 40.664C13.6485 39.992 14.4745 39.656 15.4405 39.656C16.4065 39.656 17.2185 39.992 17.8765 40.664C18.5345 41.336 18.8705 42.162 18.8705 43.142C18.8705 44.122 18.5345 44.948 17.8765 45.62C17.2185 46.278 16.4065 46.614 15.4405 46.614C14.4745 46.614 13.6485 46.278 12.9905 45.62C12.3325 44.962 12.0105 44.136 12.0105 43.142ZM23.9302 48V41.098L29.2082 48H30.6362V38.242H28.9422V45.018L23.7762 38.242H22.2362V48H23.9302ZM39.1049 48V46.418H34.5409V43.73H38.7269V42.148H34.5409V39.824H39.0069V38.242H32.7909V48H39.1049ZM45.5466 38.074C44.1046 38.074 42.8726 38.55 41.8646 39.516C40.8706 40.482 40.3666 41.686 40.3666 43.128C40.3666 44.57 40.8706 45.774 41.8646 46.74C42.8726 47.692 44.1046 48.168 45.5466 48.168C47.0726 48.168 48.4726 47.51 49.4246 46.39L48.2486 45.368C47.5626 46.18 46.6526 46.586 45.5466 46.586C44.5666 46.586 43.7406 46.264 43.0826 45.606C42.4246 44.948 42.1026 44.122 42.1026 43.128C42.1026 42.134 42.4246 41.308 43.0826 40.65C43.7406 39.992 44.5666 39.656 45.5466 39.656C46.6246 39.656 47.5206 40.048 48.2206 40.846L49.4106 39.824C48.3886 38.662 47.1006 38.074 45.5466 38.074ZM54.4768 48V39.824H57.1228V38.242H50.0808V39.824H52.7268V48H54.4768ZM58.3555 48L59.1535 46.054H63.4935L64.2915 48H66.1395L62.0655 38.242H60.5815L56.5075 48H58.3555ZM61.3235 40.636L62.9475 44.612H59.6995L61.3235 40.636ZM71.0448 48C72.6548 48 73.9148 47.552 74.8108 46.67C75.7068 45.788 76.1548 44.612 76.1548 43.142C76.1548 41.672 75.7068 40.496 74.7968 39.6C73.9008 38.69 72.6408 38.242 71.0308 38.242H67.5448V48H71.0448ZM69.2948 39.824H70.9048C73.3548 39.824 74.4048 41.084 74.4048 43.142C74.4048 45.144 73.3408 46.418 70.9188 46.418H69.2948V39.824ZM78.3165 48L79.1145 46.054H83.4545L84.2525 48H86.1005L82.0265 38.242H80.5425L76.4685 48H78.3165ZM81.2845 40.636L82.9085 44.612H79.6605L81.2845 40.636Z" fill="white"/>
</svg>
