<svg width="227" height="74" viewBox="0 0 227 74" fill="none" xmlns="http://www.w3.org/2000/svg">
<path d="M13.0598 44.5238V40.9417H6.1756V38.6815H12.4377V35.3553H6.1756V33.3083H12.8939V29.6623H2.23584V44.5238H13.0598ZM20.963 44.5238C23.472 44.5238 25.4004 43.8628 26.7067 42.5195C28.0338 41.1762 28.6974 39.3852 28.6974 37.125C28.6974 34.9075 28.0338 33.1165 26.686 31.7305C25.3589 30.3446 23.4513 29.6623 20.9423 29.6623H15.0741V44.5238H20.963ZM19.0138 33.5003H20.6934C22.373 33.5003 23.472 33.884 24.0318 34.5877C24.5917 35.2913 24.7369 36.0376 24.7369 37.125C24.7369 38.2338 24.5917 38.9801 24.0318 39.7263C23.5135 40.4726 22.373 40.8564 20.7142 40.8564H19.0138V33.5003ZM30.3384 38.1272C30.3384 40.2807 30.9605 41.9225 32.1839 43.0526C33.4073 44.1826 34.9624 44.737 36.8286 44.737C38.6948 44.737 40.25 44.1826 41.4734 43.0526C42.6968 41.9225 43.3189 40.2807 43.3189 38.1272V29.6623H39.3791V37.7007C39.3791 40.1528 38.4668 41.0696 36.8286 41.0696C35.1905 41.0696 34.2782 40.1528 34.2782 37.7007V29.6623H30.3384V38.1272ZM52.8289 29.449C50.6309 29.449 48.7647 30.174 47.2303 31.6452C45.7166 33.0951 44.9493 34.9075 44.9493 37.1037C44.9493 39.2999 45.7166 41.1123 47.2303 42.5622C48.7647 44.0121 50.6309 44.737 52.8289 44.737C55.172 44.737 57.3285 43.6496 58.8214 41.8372L56.1466 39.5344C55.2342 40.5792 54.1352 41.1123 52.8289 41.1123C51.7299 41.1123 50.7968 40.7285 50.0296 39.9822C49.2623 39.2146 48.8891 38.2551 48.8891 37.1037C48.8891 35.9523 49.2623 34.9928 50.0296 34.2252C50.7968 33.4576 51.7299 33.0738 52.8289 33.0738C54.1352 33.0738 55.2342 33.6069 56.1466 34.6516L58.8214 32.3489C57.3285 30.5365 55.172 29.449 52.8289 29.449ZM63.057 44.5238L63.8242 42.5835H69.3813L70.1278 44.5238H74.2956L68.4067 29.6623H64.7987L58.9098 44.5238H63.057ZM66.6027 34.8435L68.3445 39.4491H64.861L66.6027 34.8435ZM74.1087 37.1037C74.1087 39.0653 74.7308 40.7498 75.9956 42.1571C77.2605 43.543 78.8364 44.3745 80.7441 44.6517L80.1427 46.1443C80.8892 46.1443 81.2417 46.3362 81.2417 46.8692C81.2417 47.2317 80.9514 47.4663 80.5367 47.4663C80.2049 47.4663 79.8939 47.381 79.6244 47.2104L78.9193 48.7456C79.4792 49.172 80.2049 49.3853 81.0551 49.3853C82.6932 49.3853 83.73 48.5537 83.73 47.1251C83.73 46.1656 83.1287 45.5046 82.3615 45.5046L82.6932 44.6944H82.714C84.829 44.5025 86.5915 43.543 87.9808 41.8372L85.3059 39.5344C84.3935 40.5792 83.2945 41.1123 81.9882 41.1123C80.8892 41.1123 79.9561 40.7285 79.1889 39.9822C78.4217 39.2146 78.0485 38.2551 78.0485 37.1037C78.0485 35.9523 78.4217 34.9928 79.1889 34.2252C79.9561 33.4576 80.8892 33.0738 81.9882 33.0738C83.2945 33.0738 84.3935 33.6069 85.3059 34.6516L87.9808 32.3489C86.4878 30.5365 84.3313 29.449 81.9882 29.449C79.7902 29.449 77.924 30.174 76.3896 31.6452C74.8759 33.0951 74.1087 34.9075 74.1087 37.1037ZM93.1702 28.6388C93.2532 28.1484 93.5228 27.8925 93.9997 27.8925C94.3314 27.8925 94.8498 28.0418 95.5548 28.3616C96.2598 28.6814 96.8819 28.8307 97.4418 28.8307C99.225 28.8307 100.262 27.7219 100.552 25.5258L98.52 25.1846C98.3749 25.7816 98.0638 26.0801 97.6077 26.0801C97.2759 26.0801 96.7575 25.9309 96.0525 25.6111C95.3682 25.2912 94.7461 25.142 94.207 25.142C92.486 25.142 91.387 26.4213 91.1382 28.2976L93.1702 28.6388ZM92.2164 44.5238L92.9836 42.5835H98.5408L99.2872 44.5238H103.455L97.5662 29.6623H93.9582L88.0693 44.5238H92.2164ZM95.7622 34.8435L97.504 39.4491H94.0204L95.7622 34.8435ZM119.214 37.1463C119.214 35.0141 118.426 33.2017 116.871 31.7092C115.316 30.1953 113.45 29.449 111.231 29.449C109.012 29.449 107.146 30.1953 105.591 31.7092C104.035 33.2231 103.268 35.0354 103.268 37.1463C103.268 39.2572 104.035 41.0696 105.591 42.5835C107.146 44.076 109.012 44.8223 111.231 44.8223C113.45 44.8223 115.316 44.076 116.871 42.5835C118.426 41.0696 119.214 39.2572 119.214 37.1463ZM107.291 37.1463C107.291 36.0376 107.685 35.0781 108.452 34.2892C109.22 33.4789 110.153 33.0738 111.231 33.0738C112.309 33.0738 113.242 33.4789 114.009 34.2892C114.797 35.0994 115.191 36.0589 115.191 37.1463C115.191 38.2338 114.797 39.1933 114.009 40.0035C113.242 40.7924 112.309 41.1975 111.231 41.1975C110.132 41.1975 109.199 40.8137 108.432 40.0248C107.664 39.2359 107.291 38.2764 107.291 37.1463ZM120.236 47.253L122.848 42.1571H119.303L117.499 47.253H120.236ZM139.234 29.449C137.036 29.449 135.17 30.174 133.635 31.6452C132.121 33.0951 131.354 34.9075 131.354 37.1037C131.354 39.2999 132.121 41.1123 133.635 42.5622C135.17 44.0121 137.036 44.737 139.234 44.737C141.577 44.737 143.733 43.6496 145.226 41.8372L142.551 39.5344C141.639 40.5792 140.54 41.1123 139.234 41.1123C138.135 41.1123 137.202 40.7285 136.434 39.9822C135.667 39.2146 135.294 38.2551 135.294 37.1037C135.294 35.9523 135.667 34.9928 136.434 34.2252C137.202 33.4576 138.135 33.0738 139.234 33.0738C140.54 33.0738 141.639 33.6069 142.551 34.6516L145.226 32.3489C143.733 30.5365 141.577 29.449 139.234 29.449ZM146.51 38.1272C146.51 40.2807 147.132 41.9225 148.355 43.0526C149.579 44.1826 151.134 44.737 153 44.737C154.866 44.737 156.421 44.1826 157.645 43.0526C158.868 41.9225 159.49 40.2807 159.49 38.1272V29.6623H155.551V37.7007C155.551 40.1528 154.638 41.0696 153 41.0696C151.362 41.0696 150.45 40.1528 150.45 37.7007V29.6623H146.51V38.1272ZM171.115 44.5238V40.8564H165.62V29.6623H161.681V44.5238H171.115ZM177.816 44.5238V33.3297H181.631V29.6623H169.978V33.3297H173.876V44.5238H177.816ZM182.757 38.1272C182.757 40.2807 183.379 41.9225 184.602 43.0526C185.826 44.1826 187.381 44.737 189.247 44.737C191.113 44.737 192.668 44.1826 193.892 43.0526C195.115 41.9225 195.737 40.2807 195.737 38.1272V29.6623H191.797V37.7007C191.797 40.1528 190.885 41.0696 189.247 41.0696C187.609 41.0696 186.696 40.1528 186.696 37.7007V29.6623H182.757V38.1272ZM201.867 44.5238V39.8969H203.319H203.36L206.305 44.5238H210.825L207.217 39.0227C208.71 38.3191 209.685 36.6773 209.685 34.7796C209.685 33.351 209.187 32.157 208.171 31.1548C207.155 30.1527 205.931 29.6623 204.501 29.6623H197.927V44.5238H201.867ZM201.867 33.3297H204.397C205.164 33.3297 205.766 33.9693 205.766 34.9075C205.766 36.0163 205.123 36.6559 204.065 36.6559H201.867V33.3297ZM214.585 44.5238L215.352 42.5835H220.909L221.655 44.5238H225.823L219.934 29.6623H216.326L210.438 44.5238H214.585ZM218.13 34.8435L219.872 39.4491H216.389L218.13 34.8435ZM61.6284 73.7015V70.1194H54.7442V67.8592H61.0063V64.533H54.7442V62.486H61.4625V58.84H50.8044V73.7015H61.6284ZM82.5462 73.7015V70.1194H75.662V67.8592H81.9241V64.533H75.662V62.486H82.3803V58.84H71.7222V73.7015H82.5462ZM83.4151 70.759C83.975 71.6333 84.763 72.3795 85.7997 72.9979C86.8573 73.6162 88.1843 73.9147 89.8017 73.9147C93.6378 73.9147 95.5662 72.081 95.5662 69.2025C95.5662 67.1769 94.5503 65.8336 92.0619 64.9168C91.1495 64.5756 90.0091 64.2345 89.5114 64.1278C89.2626 64.0639 89.0137 63.9786 88.7857 63.872C88.3502 63.6801 88.2051 63.4455 88.2051 63.0191C88.2051 62.486 88.7649 62.1022 89.781 62.1022C90.88 62.1022 91.7508 62.486 92.3936 63.275L94.9856 60.9935C93.8037 59.4156 92.0204 58.6267 89.6358 58.6267C88.2051 58.6267 86.9817 59.0105 85.9656 59.7994C84.9496 60.5884 84.4519 61.6758 84.4519 63.0831C84.4519 65.0873 85.5716 66.5159 87.7903 67.3688C88.4746 67.6247 89.5114 67.9445 90.0713 68.1151C90.3616 68.2004 90.6519 68.307 90.9214 68.4136C91.4813 68.6481 91.7301 68.9253 91.7301 69.3305C91.7301 70.0341 91.0873 70.3966 89.8017 70.3966C88.288 70.3966 86.9609 69.6503 86.1937 68.5629L83.4151 70.759ZM101.015 73.7015V69.3944H103.855C105.12 69.3944 106.282 68.904 107.339 67.9019C108.397 66.8997 108.936 65.6417 108.936 64.1278C108.936 62.4221 108.189 60.9722 107.173 60.1406C106.157 59.2877 104.955 58.84 103.855 58.84H97.0748V73.7015H101.015ZM101.015 62.5074H103.669C103.855 62.5074 104.021 62.5287 104.415 62.6993C104.809 62.8698 105.058 63.3816 105.058 64.1278C105.058 64.8315 104.809 65.3432 104.415 65.5138C104.063 65.6844 103.876 65.727 103.689 65.727H101.015V62.5074ZM125.967 66.324C125.967 64.1918 125.179 62.3794 123.624 60.8869C122.069 59.373 120.203 58.6267 117.984 58.6267C115.765 58.6267 113.899 59.373 112.344 60.8869C110.789 62.4007 110.022 64.2131 110.022 66.324C110.022 68.4349 110.789 70.2473 112.344 71.7612C113.899 73.2537 115.765 74 117.984 74C120.203 74 122.069 73.2537 123.624 71.7612C125.179 70.2473 125.967 68.4349 125.967 66.324ZM114.044 66.324C114.044 65.2153 114.438 64.2558 115.206 63.4669C115.973 62.6566 116.906 62.2515 117.984 62.2515C119.062 62.2515 119.996 62.6566 120.763 63.4669C121.551 64.2771 121.945 65.2366 121.945 66.324C121.945 67.4115 121.551 68.371 120.763 69.1812C119.996 69.9701 119.062 70.3752 117.984 70.3752C116.885 70.3752 115.952 69.9914 115.185 69.2025C114.418 68.4136 114.044 67.4541 114.044 66.324ZM131.713 73.7015V69.0746H133.165H133.206L136.151 73.7015H140.671L137.063 68.2004C138.556 67.4968 139.531 65.8549 139.531 63.9573C139.531 62.5287 139.033 61.3347 138.017 60.3325C137.001 59.3304 135.777 58.84 134.347 58.84H127.774V73.7015H131.713ZM131.713 62.5074H134.243C135.01 62.5074 135.612 63.147 135.612 64.0852C135.612 65.194 134.969 65.8336 133.911 65.8336H131.713V62.5074ZM148.1 73.7015V62.5074H151.915V58.84H140.262V62.5074H144.16V73.7015H148.1ZM164.03 73.7015V70.1194H157.146V67.8592H163.408V64.533H157.146V62.486H163.864V58.84H153.206V73.7015H164.03ZM164.9 70.759C165.46 71.6333 166.248 72.3795 167.285 72.9979C168.342 73.6162 169.669 73.9147 171.287 73.9147C175.123 73.9147 177.051 72.081 177.051 69.2025C177.051 67.1769 176.035 65.8336 173.547 64.9168C172.634 64.5756 171.494 64.2345 170.996 64.1278C170.747 64.0639 170.499 63.9786 170.271 63.872C169.835 63.6801 169.69 63.4455 169.69 63.0191C169.69 62.486 170.25 62.1022 171.266 62.1022C172.365 62.1022 173.236 62.486 173.879 63.275L176.471 60.9935C175.289 59.4156 173.505 58.6267 171.121 58.6267C169.69 58.6267 168.467 59.0105 167.451 59.7994C166.434 60.5884 165.937 61.6758 165.937 63.0831C165.937 65.0873 167.057 66.5159 169.275 67.3688C169.96 67.6247 170.996 67.9445 171.556 68.1151C171.846 68.2004 172.137 68.307 172.406 68.4136C172.966 68.6481 173.215 68.9253 173.215 69.3305C173.215 70.0341 172.572 70.3966 171.287 70.3966C169.773 70.3966 168.446 69.6503 167.679 68.5629L164.9 70.759Z" fill="#104183"/>
<path d="M0 19.8349L0 22.0793L227 22.0793V19.8349L0 19.8349Z" fill="url(#paint0_linear_9_66)"/>
<path d="M1.01709 9.94734C1.73301 11.9045 3.26963 12.9459 5.22532 12.9459C7.53025 12.9459 8.90971 11.5992 8.90971 9.58822C8.90971 8.56476 8.66525 7.82859 8.01917 7.23606C7.39055 6.60762 6.76194 6.26646 5.52217 5.69188L4.40463 5.15322C4.16017 5.02754 3.89824 4.84798 3.6014 4.63251C3.04263 4.18362 2.85055 3.66292 2.85055 2.9447C2.85055 1.72373 3.79348 0.861869 5.06817 0.861869C6.13332 0.861869 6.91909 1.32871 7.39055 2.24443L8.17632 1.83146C7.53025 0.61049 6.50002 0 5.06817 0C4.17763 0 3.42678 0.287286 2.83309 0.843906C2.2394 1.40053 1.94255 2.11874 1.94255 2.98061C1.94255 3.86042 2.18701 4.54274 2.6934 5.02754C3.19978 5.51233 3.98555 5.99714 5.08563 6.48194C6.15078 6.96673 6.90163 7.41562 7.33817 7.82859C7.77471 8.24157 8.00171 8.83409 8.00171 9.58822C8.00171 10.2526 7.77471 10.8272 7.33817 11.3299C6.90163 11.8327 6.20317 12.084 5.22532 12.084C3.6014 12.084 2.41401 11.1504 1.80286 9.57028L1.01709 9.94734ZM18.215 12.7304V11.8686H12.3653V6.55375H17.761V5.67393H12.3653V1.07733H18.0927V0.215467H11.4573V12.7304H18.215ZM26.4563 0C24.6927 0 23.191 0.628443 21.9686 1.86737C20.7638 3.1063 20.1526 4.63252 20.1526 6.48194C20.1526 8.33135 20.7638 9.85756 21.9686 11.0965C23.191 12.3354 24.6927 12.9459 26.4563 12.9459C28.3247 12.9459 30.001 12.1738 31.136 10.8092L30.5073 10.2167C29.512 11.4556 28.15 12.084 26.4563 12.084C24.9022 12.084 23.6275 11.5454 22.5973 10.486C21.567 9.42663 21.0606 8.07997 21.0606 6.48194C21.0606 4.8839 21.567 3.53723 22.5973 2.47786C23.6275 1.40053 24.9022 0.861869 26.4563 0.861869C28.1151 0.861869 29.4597 1.47235 30.4899 2.69332L31.101 2.10079C29.8962 0.700265 28.3421 0 26.4563 0ZM34.3969 12.7304V7.48744H37.2781C37.4527 7.48744 37.5749 7.48743 37.6448 7.46947L40.5084 12.7304H41.5038L38.5528 7.32584C40.0021 6.84104 40.945 5.47642 40.945 3.82452C40.945 2.80106 40.5958 1.93919 39.9148 1.25689C39.2338 0.556623 38.3781 0.215467 37.3828 0.215467H33.4889V12.7304H34.3969ZM34.3969 1.07733H37.3479C38.1162 1.07733 38.7623 1.34666 39.2687 1.86737C39.7751 2.38808 40.037 3.05244 40.037 3.82452C40.037 4.63252 39.7751 5.29687 39.2512 5.83553C38.7448 6.35624 38.0813 6.62557 37.2955 6.62557H34.3969V1.07733ZM50.5631 12.7304V11.8686H44.7135V6.55375H50.1091V5.67393H44.7135V1.07733H50.4409V0.215467H43.8055V12.7304H50.5631ZM56.6392 12.7304V1.07733H60.1839V0.215467H52.204V1.07733H55.7312V12.7304H56.6392ZM60.8047 12.7304L62.1492 9.3189H68.2258L69.5878 12.7304H70.5657L65.5542 0.215467H64.8383L59.8268 12.7304H60.8047ZM65.1875 1.6519L67.8766 8.45703H62.4984L65.1875 1.6519ZM73.7536 12.7304V7.48744H76.6347C76.8094 7.48744 76.9316 7.48743 77.0014 7.46947L79.8651 12.7304H80.8604L77.9094 7.32584C79.3587 6.84104 80.3017 5.47642 80.3017 3.82452C80.3017 2.80106 79.9524 1.93919 79.2714 1.25689C78.5904 0.556623 77.7348 0.215467 76.7395 0.215467H72.8456V12.7304H73.7536ZM73.7536 1.07733H76.7046C77.4729 1.07733 78.119 1.34666 78.6254 1.86737C79.1317 2.38808 79.3937 3.05244 79.3937 3.82452C79.3937 4.63252 79.1317 5.29687 78.6079 5.83553C78.1015 6.35624 77.438 6.62557 76.6522 6.62557H73.7536V1.07733ZM84.14 12.7304V0.215467H83.232V12.7304H84.14ZM87.4573 12.7304L88.8018 9.3189H94.8784L96.2405 12.7304H97.2183L92.2068 0.215467H91.4909L86.4794 12.7304H87.4573ZM91.8401 1.6519L94.5292 8.45703H89.1511L91.8401 1.6519ZM109.544 12.7304C111.482 12.7304 113.001 12.1559 114.119 11.0247C115.254 9.87551 115.813 8.36726 115.813 6.48194C115.813 4.59661 115.254 3.08835 114.119 1.9392C112.984 0.790046 111.465 0.215467 109.526 0.215467H105.842V12.7304H109.544ZM106.75 1.07733H109.457C111.185 1.07733 112.512 1.56213 113.455 2.54968C114.416 3.53723 114.887 4.84799 114.887 6.48194C114.887 8.11588 114.416 9.42663 113.473 10.4142C112.53 11.3838 111.203 11.8686 109.474 11.8686H106.75V1.07733ZM125.184 12.7304V11.8686H119.334V6.55375H124.73V5.67393H119.334V1.07733H125.062V0.215467H118.426V12.7304H125.184ZM141.861 12.7304V11.8686H136.011V6.55375H141.407V5.67393H136.011V1.07733H141.739V0.215467H135.103V12.7304H141.861ZM143.677 9.94734C144.393 11.9045 145.929 12.9459 147.885 12.9459C150.19 12.9459 151.569 11.5992 151.569 9.58822C151.569 8.56476 151.325 7.82859 150.679 7.23606C150.05 6.60762 149.422 6.26646 148.182 5.69188L147.064 5.15322C146.82 5.02754 146.558 4.84798 146.261 4.63251C145.702 4.18362 145.51 3.66292 145.51 2.9447C145.51 1.72373 146.453 0.861869 147.728 0.861869C148.793 0.861869 149.579 1.32871 150.05 2.24443L150.836 1.83146C150.19 0.61049 149.16 0 147.728 0C146.837 0 146.087 0.287286 145.493 0.843906C144.899 1.40053 144.602 2.11874 144.602 2.98061C144.602 3.86042 144.847 4.54274 145.353 5.02754C145.86 5.51233 146.645 5.99714 147.745 6.48194C148.811 6.96673 149.561 7.41562 149.998 7.82859C150.434 8.24157 150.661 8.83409 150.661 9.58822C150.661 10.2526 150.434 10.8272 149.998 11.3299C149.561 11.8327 148.863 12.084 147.885 12.084C146.261 12.084 145.074 11.1504 144.463 9.57028L143.677 9.94734ZM156.821 12.7304V1.07733H160.366V0.215467H152.386V1.07733H155.913V12.7304H156.821ZM160.987 12.7304L162.331 9.3189H168.408L169.77 12.7304H170.748L165.736 0.215467H165.02L160.009 12.7304H160.987ZM165.37 1.6519L168.059 8.45703H162.68L165.37 1.6519ZM176.729 12.7304C178.668 12.7304 180.187 12.1559 181.304 11.0247C182.439 9.87551 182.998 8.36726 182.998 6.48194C182.998 4.59661 182.439 3.08835 181.304 1.9392C180.169 0.790046 178.65 0.215467 176.712 0.215467H173.027V12.7304H176.729ZM173.936 1.07733H176.642C178.371 1.07733 179.698 1.56213 180.641 2.54968C181.601 3.53723 182.073 4.84799 182.073 6.48194C182.073 8.11588 181.601 9.42663 180.658 10.4142C179.715 11.3838 178.388 11.8686 176.66 11.8686H173.936V1.07733ZM191.113 0C189.35 0 187.848 0.628443 186.643 1.86737C185.438 3.1063 184.827 4.63252 184.827 6.48194C184.827 8.33135 185.438 9.85756 186.643 11.0965C187.848 12.3354 189.35 12.9459 191.113 12.9459C192.877 12.9459 194.361 12.3354 195.566 11.0965C196.788 9.85756 197.399 8.33135 197.399 6.48194C197.399 4.63252 196.788 3.1063 195.566 1.86737C194.361 0.628443 192.877 0 191.113 0ZM191.113 12.0661C189.559 12.0661 188.285 11.5274 187.254 10.468C186.224 9.40866 185.718 8.07997 185.718 6.48194C185.718 4.8839 186.24 3.55518 187.272 2.49581C188.301 1.41848 189.594 0.879823 191.113 0.879823C192.632 0.879823 193.907 1.41848 194.937 2.49581C195.968 3.55518 196.474 4.8839 196.474 6.48194C196.474 8.07997 195.968 9.40866 194.937 10.468C193.925 11.5274 192.65 12.0661 191.113 12.0661ZM210.408 12.7304C212.347 12.7304 213.866 12.1559 214.983 11.0247C216.118 9.87551 216.677 8.36726 216.677 6.48194C216.677 4.59661 216.118 3.08835 214.983 1.9392C213.848 0.790046 212.329 0.215467 210.391 0.215467H206.706V12.7304H210.408ZM207.614 1.07733H210.321C212.05 1.07733 213.377 1.56213 214.32 2.54968C215.28 3.53723 215.752 4.84799 215.752 6.48194C215.752 8.11588 215.28 9.42663 214.337 10.4142C213.394 11.3838 212.067 11.8686 210.338 11.8686H207.614V1.07733ZM226.048 12.7304V11.8686H220.199V6.55375H225.594V5.67393H220.199V1.07733H225.926V0.215467H219.291V12.7304H226.048Z" fill="#104183"/>
<defs>
<linearGradient id="paint0_linear_9_66" x1="0" y1="20.9571" x2="227" y2="20.9571" gradientUnits="userSpaceOnUse">
<stop stop-color="#FFFF00"/>
<stop offset="0.509615" stop-color="#54AD33"/>
<stop offset="1" stop-color="#FFFF00"/>
</linearGradient>
</defs>
</svg>
